<svg width="800" height="600" xmlns="http://www.w3.org/2000/svg">
 <g>
  <title>Layer 1</title>
  <path fill="none" stroke="#000" opacity="NaN" d="m270.16666,174.66667l34.83334,38.33333l57,-7l56,8l48,-35l20,82l-3,66l-46,65l-61,18l-74,-11l-31,-29l-23,-37l-4,-48l2,-58l24.16666,-52.33333z" id="svg_1"/>
  <path fill="none" stroke="#000" opacity="NaN" d="m366.16666,317.66667l-5.16666,24.33333l-27,14l-21,-15" id="svg_2"/>
  <path fill="none" stroke="#000" opacity="NaN" d="m363.16666,337.66667l15.83334,16.33333l25,-1l15,-10" id="svg_3"/>
  <path id="svg_9" d="m319.63752,255.94195l-0.07237,12.31887l0.07237,-12.31887z" opacity="NaN" stroke="#000" fill="#fff"/>
  <path id="svg_10" d="m403.55055,257.68108l-0.07237,10.57974l0.07237,-10.57974z" opacity="NaN" stroke="#000" fill="#fff"/>
 </g>

</svg>